HIERARCHY
ROOT Hips
{
	OFFSET	0.00	0.00	0.00
	CHANNELS 6 Xposition Yposition Zposition Zrotation Xrotation Yrotation
	JOINT LeftUpLeg
	{
		OFFSET	 0.126116	-0.065224	 0.014019
		CHANNELS 3 Zrotation Xrotation Yrotation
		JOINT LeftLeg
		{
			OFFSET	 0.000000	 0.569914	 0.000000
			CHANNELS 3 Zrotation Xrotation Yrotation
			JOINT LeftFoot
			{
				OFFSET	 0.000000	 0.544423	 0.000000
				CHANNELS 3 Zrotation Xrotation Yrotation
				JOINT LeftToeBase
				{
					OFFSET	 0.000000	 0.207117	 0.000000
					CHANNELS 3 Zrotation Xrotation Yrotation
					End Site
					{
						OFFSET	 0.000000	 0.207117	 0.000000
					}
				}
			}
		}
	}
	JOINT RightUpLeg
	{
		OFFSET	-0.124023	-0.065224	 0.008373
		CHANNELS 3 Zrotation Xrotation Yrotation
		JOINT RightLeg
		{
			OFFSET	 0.000000	 0.570047	 0.000000
			CHANNELS 3 Zrotation Xrotation Yrotation
			JOINT RightFoot
			{
				OFFSET	 0.000000	 0.544354	 0.000000
				CHANNELS 3 Zrotation Xrotation Yrotation
				JOINT RightToeBase
				{
					OFFSET	 0.000000	 0.207540	 0.000000
					CHANNELS 3 Zrotation Xrotation Yrotation
					End Site
					{
						OFFSET	 0.000000	 0.207540	 0.000000
					}
				}
			}
		}
	}
	JOINT Spine
	{
		OFFSET	 0.000184	 0.117403	 0.007763
		CHANNELS 3 Zrotation Xrotation Yrotation
		JOINT Spine1
		{
			OFFSET	 0.000000	 0.137269	 0.000000
			CHANNELS 3 Zrotation Xrotation Yrotation
			JOINT Spine2
			{
				OFFSET	 0.000000	 0.156879	 0.000000
				CHANNELS 3 Zrotation Xrotation Yrotation
				JOINT LeftShoulder
				{
					OFFSET	 0.080501	 0.160143	 0.002496
					CHANNELS 3 Zrotation Xrotation Yrotation
					JOINT LeftArm
					{
						OFFSET	 0.000000	 0.164363	 0.000000
						CHANNELS 3 Zrotation Xrotation Yrotation
						JOINT LeftForeArm
						{
							OFFSET	 0.000000	 0.364576	 0.000000
							CHANNELS 3 Zrotation Xrotation Yrotation
							JOINT LeftHand
							{
								OFFSET	 0.000000	 0.360812	 0.000000
								CHANNELS 3 Zrotation Xrotation Yrotation
								JOINT LeftHandIndex1
								{
									OFFSET	 0.000000	 0.086006	 0.000000
									CHANNELS 3 Zrotation Xrotation Yrotation
									JOINT LeftHandIndex2
									{
										OFFSET	 0.000000	 0.047237	 0.000000
										CHANNELS 3 Zrotation Xrotation Yrotation
										JOINT LeftHandIndex3
										{
											OFFSET	-0.004284	 0.038165	 0.000551
											CHANNELS 3 Zrotation Xrotation Yrotation
											End Site
											{
												OFFSET	-0.004284	 0.038165	 0.000551
											}
										}
									}
								}
							}
						}
					}
				}
				JOINT Neck
				{
					OFFSET	 0.000000	 0.176489	 0.000000
					CHANNELS 3 Zrotation Xrotation Yrotation
					JOINT Head
					{
						OFFSET	 0.000000	 0.077941	 0.001747
						CHANNELS 3 Zrotation Xrotation Yrotation
						End Site
						{
							OFFSET	 0.000000	 0.077941	 0.001747
						}
					}
				}
				JOINT RightShoulder
				{
					OFFSET	-0.080363	 0.159706	-0.000306
					CHANNELS 3 Zrotation Xrotation Yrotation
					JOINT RightArm
					{
						OFFSET	 0.000000	 0.164196	 0.000000
						CHANNELS 3 Zrotation Xrotation Yrotation
						JOINT RightForeArm
						{
							OFFSET	 0.000000	 0.365611	 0.000000
							CHANNELS 3 Zrotation Xrotation Yrotation
							JOINT RightHand
							{
								OFFSET	 0.000000	 0.360648	 0.000000
								CHANNELS 3 Zrotation Xrotation Yrotation
								JOINT RightHandIndex1
								{
									OFFSET	 0.000000	 0.069977	 0.000000
									CHANNELS 3 Zrotation Xrotation Yrotation
									JOINT RightHandIndex2
									{
										OFFSET	 0.000000	 0.052305	 0.000000
										CHANNELS 3 Zrotation Xrotation Yrotation
										JOINT RightHandIndex3
										{
											OFFSET	 0.009002	 0.042196	 0.000782
											CHANNELS 3 Zrotation Xrotation Yrotation
											End Site
											{
												OFFSET	 0.009002	 0.042196	 0.000782
											}
										}
									}
								}
							}
						}
					}
				}
			}
		}
	}
}
MOTION
Frames:    12
Frame Time: 0.03333334
 0.021423	 1.267356	 0.012139	-0.319120	 3.624538	 178.124800	-177.611900	 4.254380	-14.406670	 3.256617	-16.094130	 3.384218	-5.075153	 68.989100	 5.628020	 1.331492	 28.938720	-2.729976	 178.766100	 6.029570	 17.075500	-5.755741	-18.307140	-7.598848	-2.390724	 71.094510	 1.890803	-1.312042	 28.674770	 2.781586	-0.531380	 3.728533	-10.163540	-2.020514	 5.638916	-5.347454	-0.365010	-3.617496	 14.605530	-113.449300	 4.730935	 92.852240	 36.956400	 50.042140	 12.716490	 4.949653	-0.255815	-0.072849	-27.378480	-7.308738	-45.212220	-6.580301	 5.266122	 0.000000	 0.000000	 0.000000	 0.000000	 0.000000	 0.000000	 0.000000	 3.181304	-0.892783	-0.688778	 3.225525	-0.002512	 4.786645	 114.182400	-4.172171	-88.529290	-12.490490	 55.895990	-45.022690	-5.084904	-0.199780	 0.049687	-23.385580	-11.868040	-12.084680	-0.369880	 10.873130	 0.746433	 11.981670	 9.601770	-2.157272	-8.359320	 3.159339	 0.103672
-0.001310	 1.269452	-0.008714	 0.107001	 3.204977	 178.792600	-178.160300	 3.300816	-15.320700	 3.123747	-15.430470	 2.883994	-5.221148	 69.641960	 6.756474	 1.331492	 28.938720	-2.729976	 178.001800	 4.120201	 18.828440	-5.034771	-16.147190	-6.444871	 2.470135	 70.324550	-1.717239	-1.305362	 28.580660	 2.604133	-0.755568	 3.019495	-11.177960	-2.050984	 4.302299	-6.298407	-1.584706	-4.342227	 14.366380	-113.447100	 5.125268	 92.999880	 35.827350	 45.885710	 12.240450	 4.893239	-0.249965	-0.240425	-26.775370	-3.490278	-48.109390	-6.580301	 5.266122	 0.000000	 0.000000	 0.000000	 0.000000	 0.000000	 0.000000	 0.000000	 3.832125	-0.649141	-0.250811	 3.248335	 0.595750	 5.255940	 114.205300	-4.425971	-88.484250	-40.665070	 19.230410	 52.249550	-83.256440	-2.235253	-1.762680	-50.026090	-19.119690	 16.030450	-0.359781	 10.582430	 0.744568	 11.977790	 9.317298	-2.096062	-8.359142	 3.150330	 0.104225
-0.001288	 1.269454	-0.008754	 0.122622	 3.204821	 178.776800	-178.015500	 3.296442	-16.273340	 3.127605	-15.448640	 2.878029	-5.231262	 69.614530	 6.770196	 1.331492	 28.938720	-2.729976	 177.886000	 4.103736	 19.757270	-5.027700	-16.125740	-6.454289	 2.434298	 70.307820	-1.681910	-1.305367	 28.580680	 2.602939	-0.727623	 2.921087	-11.454740	-2.058850	 4.618180	-6.282146	-1.549149	-4.774136	 14.308070	-113.447100	 5.122747	 92.999320	 35.359000	 45.888450	 12.691590	 4.967771	-0.250036	-0.449603	-26.444090	-3.868767	-48.522270	-6.580301	 5.266122	 0.000000	 0.000000	 0.000000	 0.000000	 0.000000	 0.000000	 0.000000	 3.836245	-0.658592	-0.252094	 3.266646	 0.551860	 5.235200	 114.204600	-4.420957	-88.487860	-40.210380	 19.365960	 51.743000	-83.536080	-2.233644	-1.563989	-51.288750	-19.755620	 15.788160	-0.359780	 10.582400	 0.744568	 11.977790	 9.317273	-2.096057	-8.359142	 3.150317	 0.104226
-0.001256	 1.269458	-0.008800	 0.137782	 3.204895	 178.759900	-177.883500	 3.289744	-17.130400	 3.131014	-15.464690	 2.871480	-5.243741	 69.589320	 6.785790	 1.331492	 28.938720	-2.729976	 177.784600	 4.085983	 20.588480	-5.020833	-16.104920	-6.464583	 2.397058	 70.293750	-1.644499	-1.305372	 28.580710	 2.601660	-0.701274	 2.832690	-11.749440	-2.065179	 4.902339	-6.261580	-1.517920	-5.162677	 14.241170	-113.447200	 5.120033	 92.998730	 34.925790	 45.901780	 13.113370	 5.049225	-0.250251	-0.673782	-26.139610	-4.233854	-48.929980	-6.580301	 5.266122	 0.000000	 0.000000	 0.000000	 0.000000	 0.000000	 0.000000	 0.000000	 3.840656	-0.668716	-0.253467	 3.285619	 0.514388	 5.211165	 114.203800	-4.415575	-88.491750	-39.726020	 19.545930	 51.145740	-83.979480	-2.232494	-1.356810	-52.538600	-20.392120	 15.443060	-0.359779	 10.582370	 0.744568	 11.977790	 9.317245	-2.096052	-8.359141	 3.150302	 0.104227
-0.001203	 1.269463	-0.008863	 0.155958	 3.204897	 178.738000	-177.733200	 3.279819	-18.094100	 3.134945	-15.483070	 2.862897	-5.261817	 69.560650	 6.807086	 1.331492	 28.938720	-2.729976	 177.672100	 4.062824	 21.531870	-5.012455	-16.079510	-6.478188	 2.384737	 70.278660	-1.635731	-1.305378	 28.580760	 2.599993	-0.670855	 2.732738	-12.132330	-2.071948	 5.222368	-6.232232	-1.483362	-5.600175	 14.149520	-113.447200	 5.116508	 92.997960	 34.423970	 45.931880	 13.605870	 5.153860	-0.250490	-0.966041	-25.787530	-4.675248	-49.429890	-6.580301	 5.266122	 0.000000	 0.000000	 0.000000	 0.000000	 0.000000	 0.000000	 0.000000	 3.846409	-0.681914	-0.255257	 3.309749	 0.474473	 5.178000	 114.202800	-4.408564	-88.496830	-39.087320	 19.832360	 50.293940	-84.734700	-2.231488	-1.093687	-54.065270	-21.171280	 14.879160	-0.359778	 10.582340	 0.744568	 11.977790	 9.317211	-2.096045	-8.359141	 3.150284	 0.104229
-0.001132	 1.269469	-0.008940	 0.175087	 3.205261	 178.713100	-177.584500	 3.266773	-19.032510	 3.138677	-15.500660	 2.852893	-5.243235	 69.532370	 6.786139	 1.331492	 28.938720	-2.729976	 177.566000	 4.036688	 22.448290	-5.003721	-16.052990	-6.493869	 2.333153	 70.265450	-1.582963	-1.305386	 28.580790	 2.598105	-0.640055	 2.634912	-12.564260	-2.078900	 5.536514	-6.196260	-1.449684	-6.032238	 14.041400	-113.447300	 5.112499	 92.997080	 33.907680	 45.979750	 14.116700	 5.273276	-0.250755	-1.296897	-25.429030	-5.147316	-49.969220	-6.580301	 5.266122	 0.000000	 0.000000	 0.000000	 0.000000	 0.000000	 0.000000	 0.000000	 3.852923	-0.696862	-0.257282	 3.336527	 0.437218	 5.138768	 114.201700	-4.400631	-88.502560	-38.344140	 20.219960	 49.237870	-85.792720	-2.230420	-0.803648	-55.697500	-21.994440	 14.098820	-0.359777	 10.582300	 0.744568	 11.977790	 9.317172	-2.096037	-8.359140	 3.150263	 0.104231
-0.001035	 1.269476	-0.009037	 0.195794	 3.205930	 178.684100	-177.427500	 3.249323	-20.013530	 3.142320	-15.517740	 2.841227	-5.268053	 69.500820	 6.812995	 1.331492	 28.938720	-2.729976	 177.460900	 4.006143	 23.385610	-4.994132	-16.023870	-6.512205	 2.274266	 70.253620	-1.522396	-1.305394	 28.580840	 2.595920	-0.608573	 2.534555	-13.062370	-2.086449	 5.857998	-6.152253	-1.415737	-6.476011	 13.911960	-113.447400	 5.107872	 92.996070	 33.353550	 46.050880	 14.668940	 5.410908	-0.251022	-1.679838	-25.048270	-5.672536	-50.570300	-6.580301	 5.266122	 0.000000	 0.000000	 0.000000	 0.000000	 0.000000	 0.000000	 0.000000	 3.860462	-0.714162	-0.259623	 3.367021	 0.401239	 5.091804	 114.200300	-4.391423	-88.509220	-37.450620	 20.737870	 47.899830	-87.242280	-2.228720	-0.476983	-57.497840	-22.871390	 13.019970	-0.359775	 10.582250	 0.744568	 11.977790	 9.317125	-2.096028	-8.359139	 3.150239	 0.104233
-0.000916	 1.269483	-0.009151	 0.217018	 3.206696	 178.653500	-177.272100	 3.229350	-20.972230	 3.145856	-15.534380	 2.828437	-5.298863	 69.468770	 6.845397	 1.331492	 28.938720	-2.729976	 177.362100	 3.972922	 24.296580	-4.984305	-15.994070	-6.532289	 2.208709	 70.244340	-1.454350	-1.305403	 28.580890	 2.593548	-0.578272	 2.436070	-13.601450	-2.095229	 6.170550	-6.102858	-1.382756	-6.908951	 13.767240	-113.447400	 5.102841	 92.994960	 32.783700	 46.144440	 15.238280	 5.562012	-0.251428	-2.095304	-24.664190	-6.228533	-51.202200	-6.580301	 5.266122	 0.000000	 0.000000	 0.000000	 0.000000	 0.000000	 0.000000	 0.000000	 3.868642	-0.732938	-0.262162	 3.399677	 0.368333	 5.039331	 114.198900	-4.381464	-88.516430	-36.437190	 21.362110	 46.309230	-89.040950	-2.225372	-0.131496	-59.379220	-23.726790	 11.644650	-0.359774	 10.582200	 0.744568	 11.977790	 9.317076	-2.096018	-8.359138	 3.150213	 0.104236
-0.000767	 1.269492	-0.009285	 0.239298	 3.208218	 178.619600	-177.113500	 3.205023	-21.937870	 3.149214	-15.550110	 2.814230	-5.334002	 69.434860	 6.881340	 1.331492	 28.938720	-2.729976	 177.266800	 3.935608	 25.209150	-4.973956	-15.962620	-6.554770	 2.136267	 70.237260	-1.378889	-1.305413	 28.580960	 2.590925	-0.548733	 2.337866	-14.195120	-2.105763	 6.482934	-6.046121	-1.349704	-7.343983	 13.602870	-113.447500	 5.097296	 92.993770	 32.178620	 46.265160	 15.843530	 5.729692	-0.251884	-2.554455	-24.263370	-6.834607	-51.882350	-6.580301	 5.266122	 0.000000	 0.000000	 0.000000	 0.000000	 0.000000	 0.000000	 0.000000	 3.877687	-0.753702	-0.264966	 3.435398	 0.337409	 4.979874	 114.197300	-4.370445	-88.524410	-35.262750	 22.097390	 44.383240	-91.250400	-2.218931	 0.241734	-61.402580	-24.544210	 9.885426	-0.359772	 10.582150	 0.744568	 11.977790	 9.317022	-2.096006	-8.359138	 3.150183	 0.104239
-0.000604	 1.269500	-0.009430	 0.260497	 3.209516	 178.585500	-176.966000	 3.179613	-22.826600	 3.152099	-15.563660	 2.799932	-5.369860	 69.401990	 6.917135	 1.331492	 28.938720	-2.729976	 177.182700	 3.898580	 26.044860	-4.964098	-15.932630	-6.577451	 2.064508	 70.233150	-1.303877	-1.305423	 28.581010	 2.588306	-0.522761	 2.247435	-14.785260	-2.117610	 6.766634	-5.987428	-1.319337	-7.742114	 13.434590	-113.447600	 5.091736	 92.992520	 31.591100	 46.401970	 16.434190	 5.896297	-0.252335	-3.013047	-23.880500	-7.435143	-52.548430	-6.580301	 5.266122	 0.000000	 0.000000	 0.000000	 0.000000	 0.000000	 0.000000	 0.000000	 3.886720	-0.774441	-0.267764	 3.470754	 0.310906	 4.919252	 114.195700	-4.359433	-88.532360	-34.037690	 22.845710	 42.284350	-93.634920	-2.208722	 0.607361	-63.386410	-25.208850	 7.888391	-0.359770	 10.582090	 0.744568	 11.977790	 9.316966	-2.095995	-8.359137	 3.150154	 0.104241
-0.000397	 1.269511	-0.009612	 0.284269	 3.211540	 178.545400	-176.803600	 3.147315	-23.795870	 3.154766	-15.576160	 2.782998	-5.412857	 69.363560	 6.959273	 1.331492	 28.938720	-2.729976	 177.095000	 3.854559	 26.951480	-4.952908	-15.898630	-6.604277	 1.980721	 70.231300	-1.216024	-1.305436	 28.581080	 2.585227	-0.496475	 2.149534	-15.475080	-2.132639	 7.072955	-5.916252	-1.286460	-8.174744	 13.232010	-113.447700	 5.085216	 92.991110	 30.911000	 46.580230	 17.114750	 6.094560	-0.252953	-3.551467	-23.447270	-8.140445	-53.312660	-6.580301	 5.266122	 0.000000	 0.000000	 0.000000	 0.000000	 0.000000	 0.000000	 0.000000	 3.897337	-0.798818	-0.271048	 3.511986	 0.284117	 4.846494	 114.193800	-4.346492	-88.541710	-32.543440	 23.697940	 39.595260	-96.598110	-2.191091	 1.030905	-65.688260	-25.769960	 5.251287	-0.359768	 10.582030	 0.744568	 11.977790	 9.316901	-2.095983	-8.359134	 3.150120	 0.104245
-0.000153	 1.269522	-0.009823	 0.308945	 3.213747	 178.502100	-176.637500	 3.110837	-24.776990	 3.157277	-15.587990	 2.764467	-5.461855	 69.322670	 7.006507	 1.331492	 28.938720	-2.729976	 177.010500	 3.806587	 27.864300	-4.941309	-15.863380	-6.633745	 1.888910	 70.232980	-1.119091	-1.305448	 28.581150	 2.581876	-0.472414	 2.050828	-16.220390	-2.150526	 7.378740	-5.835913	-1.253409	-8.610088	 13.005990	-113.447800	 5.078126	 92.989550	 30.180300	 46.793110	 17.846760	 6.308684	-0.253562	-4.137105	-22.988680	-8.908944	-54.126250	-6.580301	 5.266122	 0.000000	 0.000000	 0.000000	 0.000000	 0.000000	 0.000000	 0.000000	 3.908890	-0.825349	-0.274617	 3.556539	 0.259239	 4.765757	 114.191800	-4.332407	-88.551910	-30.873580	 24.535110	 36.404320	-99.942700	-2.164250	 1.487515	-68.157990	-26.075060	 2.056477	-0.359766	 10.581960	 0.744568	 11.977790	 9.316832	-2.095968	-8.359134	 3.150084	 0.104248
